<?xml version="1.0" encoding="UTF-8" standalone="no"?>
<svg xmlns="http://www.w3.org/2000/svg" xmlns:xlink="http://www.w3.org/1999/xlink" width="210mm" height="297mm">
  <defs>
    <linearGradient id="b">
      <stop offset="0" stop-color="#fff"/>
      <stop offset="1" stop-color="#fff" stop-opacity="0"/>
    </linearGradient>
    <linearGradient id="e" x1="49.136964" x2="747.09593" y1="467.2588" y2="467.2588" gradientTransform="scale(.90134 1.10946)" gradientUnits="userSpaceOnUse">
      <stop offset="0" stop-color="#729fcf"/>
      <stop offset="1" stop-color="#204a87"/>
    </linearGradient>
    <linearGradient id="a">
      <stop offset="0" stop-color="#fff"/>
      <stop offset="1" stop-color="#729fcf"/>
    </linearGradient>
    <linearGradient id="f">
      <stop offset="0"/>
      <stop offset="1" stop-opacity="0"/>
    </linearGradient>
    <linearGradient id="c">
      <stop offset="0" stop-color="#3977c3"/>
      <stop offset="1" stop-color="#89aedc" stop-opacity="0"/>
    </linearGradient>
    <linearGradient id="d">
      <stop offset="0" stop-color="#729fcf"/>
      <stop offset=".31578946" stop-color="#babdb6"/>
      <stop offset="1" stop-color="#3465a4"/>
    </linearGradient>
    <linearGradient xlink:href="#a" id="k" x1="24" x2="24" y1="16.525082" y2="13.284962" gradientUnits="userSpaceOnUse"/>
    <linearGradient xlink:href="#b" id="l" x1="16.07143" x2="15.785715" y1="19.5" y2="30" gradientTransform="translate(-152.46168 8.8865747) scale(21.1429)" gradientUnits="userSpaceOnUse"/>
    <linearGradient xlink:href="#c" id="j" x1="17.160095" x2="37.969398" y1="14.004482" y2="56.575912" gradientTransform="translate(-149.44117 -46.991167) scale(21.1429)" gradientUnits="userSpaceOnUse"/>
    <linearGradient xlink:href="#d" id="h" x1="9.3030529" x2="38.826412" y1="26.71875" y2="26.71875" gradientTransform="translate(-149.44117 -46.991167) scale(21.1429)" gradientUnits="userSpaceOnUse"/>
    <linearGradient xlink:href="#e" id="i" x1="49.136964" x2="747.09593" y1="467.2588" y2="467.2588" gradientTransform="matrix(.90134 0 0 1.10946 .52026458 -.48501452)" gradientUnits="userSpaceOnUse"/>
    <radialGradient xlink:href="#f" id="g" cx="23.857143" cy="40" r="17.142857" fx="23.857143" fy="40" gradientTransform="matrix(1 0 0 .5 0 20)" gradientUnits="userSpaceOnUse"/>
  </defs>
  <path fill="url(#g)" d="M41 40a17.142857 8.5714283 0 1 1-34.2857132 0A17.142857 8.5714283 0 1 1 41 40z" display="block" overflow="visible" style="marker:none" transform="matrix(22.3851 0 0 24.34096 -173.03587 -228.02997)"/>
  <path fill="url(#h)" stroke="url(#i)" stroke-miterlimit="10" stroke-width="21.14290619" d="M356.66648 141.31284c-166.17052 0-301.285983 59.253-301.285983 132.14314v488.92965c0 72.89018 135.115463 132.14315 301.285983 132.14315 166.17053 0 306.66725-59.25297 306.66725-132.14315V273.45598c0-72.89014-140.49672-132.14314-306.66725-132.14314z" display="block" overflow="visible" style="marker:none"/>
  <path fill="none" stroke="url(#j)" stroke-miterlimit="10" stroke-width="21.14290619" d="M356.84833 157.78994c-154.92885 0-280.904411 55.24468-280.904411 123.20413v467.81359c0 67.95922 125.975561 123.20393 280.904411 123.20393 154.93094 0 285.92181-55.24471 285.92181-123.20393V280.99407c0-67.95945-130.99087-123.20413-285.92181-123.20413z" display="block" opacity=".5443038" overflow="visible" style="marker:none"/>
  <path fill="#3465a4" stroke="url(#k)" stroke-miterlimit="10" stroke-width="1.00492704" d="M36.857142 14.071428a12.857142 5.5 0 1 1-25.714284 0 12.857142 5.5 0 1 1 25.714284 0z" display="block" overflow="visible" style="marker:none" transform="matrix(21.93135 0 0 20.18342 -168.36368 -12.347239)"/>
  <path fill="url(#l)" d="m139.00874 369.82596 7.5501 354.89887 96.65272 27.18366-3.0192-353.38841s43.7954 0 114.77637-4.53074c-110.27718-4.92776-236.44943-52.3219-279.389384-83.06136 29.958254 44.23476 63.429394 58.89798 63.429394 58.89798z" display="block" opacity=".49367083" overflow="visible" style="marker:none"/>
  <path fill="none" d="M-64.879845 115.85568h850v850h-850z"/>
  <path stroke="#000" stroke-width=".32604825" d="M-905.00391 537.61462c-.57292 0-1.02864.21355-1.36718.64062-.33594.42709-.50391 1.00912-.50391 1.7461 0 .73437.16797 1.3151.50391 1.74218.33854.42709.79426.64063 1.36718.64063.57292 0 1.02604-.21354 1.35938-.64063.33593-.42708.5039-1.00781.50391-1.74218-.00001-.73698-.16798-1.31901-.50391-1.7461-.33334-.42707-.78646-.64062-1.35938-.64062m0-.64063c.81771.00001 1.47135.27475 1.96094.82422.48958.54688.73437 1.28126.73438 2.20313-.00001.91927-.2448 1.65364-.73438 2.20312-.48959.54688-1.14323.82031-1.96094.82031-.82031 0-1.47656-.27343-1.96875-.82031-.48958-.54687-.73437-1.28125-.73437-2.20312 0-.92187.24479-1.65625.73437-2.20313.49219-.54947 1.14844-.82421 1.96875-.82422m4.59375 5.28125v2.32032h-.72265v-6.03907h.72265v.66407c.15104-.26042.34115-.45313.57032-.57813.23176-.1276.50781-.1914.82812-.19141.53125.00001.96224.21095 1.29297.63282.33333.42188.5.97656.5 1.66406 0 .6875-.16667 1.24219-.5 1.66406-.33073.42188-.76172.63281-1.29297.63281-.32031 0-.59636-.0625-.82812-.1875-.22917-.1276-.41928-.32161-.57032-.58203m2.44532-1.52734c-.00001-.52864-.10938-.94271-.32813-1.24219-.21615-.30208-.51432-.45312-.89453-.45312-.38021 0-.67969.15104-.89844.45312-.21614.29948-.32422.71355-.32422 1.24219 0 .52865.10808.94401.32422 1.24609.21875.29948.51823.44922.89844.44922.38021 0 .67838-.14974.89453-.44922.21875-.30208.32812-.71744.32813-1.24609m5.67968-.18359v.35156h-3.30468c.0312.49479.17968.8724.44531 1.13281.26823.25781.64062.38672 1.11719.38672.27603 0 .54296-.0339.80078-.10156.26041-.0677.51822-.16927.77344-.30469v.67969c-.25782.10937-.52214.19271-.79297.25-.27084.0573-.54558.0859-.82422.0859-.69792 0-1.25131-.20312-1.66016-.60937-.40625-.40625-.60937-.95573-.60937-1.64844 0-.71614.1927-1.28385.57812-1.70312.38802-.42187.91016-.63281 1.56641-.63282.58854.00001 1.05338.19011 1.39453.57032.34374.3776.51562.89193.51562 1.54297m-.71875-.21094c-.005-.39323-.11589-.70703-.33203-.94141-.21354-.23437-.4974-.35156-.85156-.35156-.40104 0-.72266.11328-.96484.33984-.23959.22657-.37761.54558-.41407.95703l2.5625-.004m5.53516-.06237v2.64062h-.71875v-2.61718c0-.41406-.0807-.72396-.24219-.92969-.16146-.20573-.40365-.30859-.72656-.3086-.38802.00001-.69401.12371-.91797.3711-.22396.2474-.33594.58464-.33594 1.01172v2.47265h-.72265v-4.375h.72265v.67969c.17188-.26302.3737-.45963.60547-.58984.23438-.13021.50391-.19531.8086-.19532.5026.00001.88281.15626 1.14062.46875.25781.3099.38672.76693.38672 1.3711" font-family="Sans" font-size="8" font-weight="400" letter-spacing="0" style="line-height:125%" transform="translate(11236.927 -5968.7428) scale(12.26812)" word-spacing="0"/>
  <path fill="#75507b" stroke="#75507b" stroke-width=".32283331" d="M-920.05859 611.07946h.78906v5.16797h2.83984v.66406h-3.6289v-5.83203m5.24218.64844v4.53516h.95313c.80468 0 1.39322-.1823 1.76562-.54688.375-.36458.5625-.9401.5625-1.72656 0-.78125-.1875-1.35286-.5625-1.71485-.3724-.36457-.96094-.54687-1.76562-.54687h-.95313m-.78906-.64844h1.6211c1.1302.00001 1.95963.23568 2.48828.70703.52864.46876.79296 1.20313.79297 2.20313-.00001 1.00521-.26564 1.74349-.79688 2.21484-.53125.47136-1.35938.70703-2.48437.70703h-1.6211v-5.83203m7.96485.77735-1.07032 2.90234h2.14453l-1.07421-2.90234m-.44532-.77735h.89453l2.22266 5.83203h-.82031l-.53125-1.49609h-2.62891l-.53125 1.49609h-.83203l2.22656-5.83203m4.75391.64844v2.19141h.99219c.36718 0 .65103-.0951.85156-.28516.20052-.1901.30078-.46093.30078-.8125 0-.34895-.10026-.61849-.30078-.80859-.20053-.1901-.48438-.28516-.85156-.28516h-.99219m-.78906-.64844h1.78125c.65364.00001 1.14713.14845 1.48047.44531.33593.29428.5039.72657.5039 1.29688 0 .57552-.16797 1.01042-.5039 1.30469-.33334.29427-.82683.44141-1.48047.4414h-.99219v2.34375h-.78906v-5.83203" font-family="Sans" font-size="8" font-weight="400" letter-spacing="0" style="line-height:125%" transform="translate(11765.93 -6953.5128) scale(12.3903)" word-spacing="0"/>
  <path d="M612.64224 620.2402h9.68395v1.30345h-4.06374v10.14399h-1.55647v-10.14399h-4.06374v-1.30345" font-family="Sans" font-size="8" font-weight="400" letter-spacing="0" style="line-height:125%" word-spacing="0"/>
  <path stroke="#000" d="M623.82899 620.2402h2.30789l2.92128 7.79008 2.93663-7.79008h2.30789v11.44744h-1.51048v-10.05197l-2.95196 7.85143h-1.55649l-2.95194-7.85143v10.05197h-1.50282V620.2402" font-family="Sans" font-size="8" font-weight="400" letter-spacing="0" style="line-height:125%" word-spacing="0"/>
</svg>